<?xml version="1.0" encoding="iso-8859-1"?>
<!-- Generator: Adobe Illustrator 19.0.0, SVG Export Plug-In . SVG Version: 6.00 Build 0)  -->
<svg version="1.1" id="Capa_1" xmlns="http://www.w3.org/2000/svg" xmlns:xlink="http://www.w3.org/1999/xlink" x="0px" y="0px"
	 viewBox="0 0 511.999 511.999" style="enable-background:new 0 0 511.999 511.999;" xml:space="preserve">
<g>
	<g>
		<path d="M504.348,90.26c-32.978-39.64-80.205-50.786-124.109-16.585c-2.153-13.552-7.714-26.51-16.635-38.483l-24.108,17.962
			c19.34,25.956,10.395,52.143,2.721,66.211C286.814,90.727,151.282,73.922,88.46,240.649
			c-25.392,67.39-74.151,87.305-85.263,116.135c-28.877,74.932,143.062,180.775,305.793,76.209
			c146.055-93.854,126.758-240.047,58.346-297.043c2.359-4.126,4.859-9.101,7.087-14.784
			c47.876,41.988,98.241,29.952,137.576-21.706L504.348,90.26z M377.435,198.817C449.055,363.156,191.03,520.934,52.356,409.692
			c-14.193-11.385-26.224-28.818-21.107-42.097c6.578-17.07,58.257-44.46,85.343-116.345
			c29.927-79.427,74.768-117.448,141.117-119.651C309.771,129.866,356.48,150.733,377.435,198.817z M395.673,99.829
			c26.384-22.496,50.241-21.518,75.949,0.307C445.463,122.865,420.453,120.867,395.673,99.829z"/>
	</g>
</g>
<g>
</g>
<g>
</g>
<g>
</g>
<g>
</g>
<g>
</g>
<g>
</g>
<g>
</g>
<g>
</g>
<g>
</g>
<g>
</g>
<g>
</g>
<g>
</g>
<g>
</g>
<g>
</g>
<g>
</g>
</svg>
